{
	"nodes":[{
		"name":"Beat_Saber_block",
		"translation":[0.0,
		0.0,
		0.0],
		"rotation":[0.5,
		-0.5,
		0.5,
		0.5],
		"scale":[1.0,
		1.0,
		1.0],
		"mesh":0,
		"children":[1]
	},
	{
		"name":"Beat_Saber_arrow",
		"translation":[3.8952643871307375,
		-3.697785493223493e-32,
		-1.0416291952133179],
		"rotation":[0.0,
		0.0,
		0.0,
		-1.0],
		"scale":[1.0,
		1.0,
		1.0],
		"mesh":1
	}],
	"asset":{
		"version":"2.0",
		"generator":"Created using the official Cinema 4D glTF Exporter 1.000x284978"
	},
	"scenes":[{
		"nodes":[0]
	}],
	"materials":[{
		"pbrMetallicRoughness":{
			"baseColorFactor":[0.15786666666666653,
			0.8,
			0.11200000000000002,
			1.0],
			"metallicFactor":0.0,
			"roughnessFactor":0.5
		},
		"emissiveFactor":[0.0,
		0.0,
		0.0],
		"alphaMode":"OPAQUE",
		"doubleSided":false,
		"name":"Mat.1"
	},
	{
		"pbrMetallicRoughness":{
			"baseColorFactor":[1.0,
			1.0,
			1.0,
			1.0],
			"metallicFactor":0.0,
			"roughnessFactor":0.5
		},
		"emissiveFactor":[0.0,
		0.0,
		0.0],
		"alphaMode":"OPAQUE",
		"doubleSided":false,
		"name":"Mat"
	}],
	"meshes":[{
		"name":"Beat_Saber_block",
		"primitives":[{
			"attributes":{
				"POSITION":1
			},
			"indices":0,
			"material":0
		}]
	},
	{
		"name":"Beat_Saber_arrow",
		"primitives":[{
			"attributes":{
				"POSITION":5
			},
			"indices":4,
			"material":1
		}]
	}],
	"accessors":[{
		"count":21360,
		"bufferView":0,
		"type":"SCALAR",
		"componentType":5123,
		"byteOffset":0,
		"min":[0],
		"max":[3561]
	},
	{
		"count":3562,
		"bufferView":1,
		"type":"VEC3",
		"componentType":5126,
		"byteOffset":0,
		"min":[-4.999989986419678,
		-4.999874591827393,
		-4.917314529418945],
		"max":[5.000010013580322,
		5.000125408172607,
		5.082685470581055]
	},
	{
		"count":51,
		"bufferView":2,
		"type":"SCALAR",
		"componentType":5126,
		"byteOffset":0,
		"min":[0.0],
		"max":[2.0]
	},
	{
		"count":51,
		"bufferView":2,
		"type":"VEC4",
		"componentType":5126,
		"byteOffset":204,
		"min":[0.0006855318788439035,
		-0.5,
		0.0006855318788439035,
		-0.4911534786224365],
		"max":[0.9993144869804382,
		0.4911534786224365,
		0.9993144869804382,
		0.5]
	},
	{
		"count":108,
		"bufferView":3,
		"type":"SCALAR",
		"componentType":5123,
		"byteOffset":0,
		"min":[0],
		"max":[19]
	},
	{
		"count":20,
		"bufferView":4,
		"type":"VEC3",
		"componentType":5126,
		"byteOffset":0,
		"min":[0.0,
		-3.121140480041504,
		-1.9485093355178834],
		"max":[1.1031439304351807,
		3.121140480041504,
		-1.5621936417396246e-32]
	}],
	"bufferViews":[{
		"buffer":0,
		"byteOffset":0,
		"byteLength":42720,
		"target":34963
	},
	{
		"buffer":0,
		"byteOffset":42720,
		"byteLength":42744,
		"target":34962
	},
	{
		"buffer":1,
		"byteOffset":0,
		"byteLength":1020
	},
	{
		"buffer":2,
		"byteOffset":0,
		"byteLength":216,
		"target":34963
	},
	{
		"buffer":2,
		"byteOffset":216,
		"byteLength":240,
		"target":34962
	}],
	"animations":[{
		"samplers":[{
			"input":2,
			"interpolation":"LINEAR",
			"output":3
		}],
		"channels":[{
			"sampler":0,
			"target":{
				"node":0,
				"path":"rotation"
			}
		}]
	}],
	"buffers":[{
		"uri":"data:application/octet-stream;base64,",
		"byteLength":85464
	},
	{
		"uri":"data:application/octet-stream;base64,",
		"byteLength":1020
	},
	{
		"uri":"data:application/octet-stream;base64,",
		"byteLength":456
	}]
}