{
	"nodes":[{
		"name":"Voronoi Fracture",
		"translation":[0.0,
		0.0,
		0.0],
		"rotation":[0.0,
		0.0,
		0.0,
		-1.0],
		"scale":[1.0,
		1.0,
		1.0],
		"children":[1,
		4]
	},
	{
		"name":"Beat_Saber_block.1-Mat_fractureparts",
		"translation":[-1.6813803911209107,
		-2.8262038230895998,
		0.5741891264915466],
		"rotation":[0.0,
		0.0,
		0.0,
		-1.0],
		"scale":[1.0,
		1.0,
		1.0],
		"children":[2,
		3]
	},
	{
		"name":"Beat_Saber_block.1-Mat_fracturepart8",
		"translation":[0.4066946506500244,
		0.9635437726974487,
		-0.03546189144253731],
		"rotation":[0.0,
		0.0,
		0.0,
		-1.0],
		"scale":[1.0,
		1.0,
		1.0],
		"mesh":0
	},
	{
		"name":"Beat_Saber_block.1-Mat_fracturepart10",
		"translation":[0.5,
		0.5,
		-0.5],
		"rotation":[0.0,
		0.0,
		0.0,
		-1.0],
		"scale":[1.0,
		1.0,
		1.0],
		"mesh":1
	},
	{
		"name":"Beat_Saber_block.1-Mat.1_fractureparts",
		"translation":[-0.0001253135415026918,
		2.3057823181152345,
		-2.836146831512451],
		"rotation":[0.0,
		0.0,
		0.0,
		-1.0],
		"scale":[1.0,
		1.0,
		1.0],
		"children":[5,
		6,
		7,
		8,
		9,
		10,
		11,
		12,
		13,
		14]
	},
	{
		"name":"Beat_Saber_block.1-Mat.1_fracturepart1",
		"translation":[-1.6813803911209107,
		-2.8262038230895998,
		0.5741891264915466],
		"rotation":[0.0,
		0.0,
		0.0,
		-1.0],
		"scale":[1.0,
		1.0,
		1.0],
		"mesh":2
	},
	{
		"name":"Beat_Saber_block.1-Mat.1_fracturepart2",
		"translation":[-0.0001253135415026918,
		2.3057823181152345,
		-2.836146831512451],
		"rotation":[0.0,
		0.0,
		0.0,
		-1.0],
		"scale":[1.0,
		1.0,
		1.0],
		"mesh":3
	},
	{
		"name":"Beat_Saber_block.1-Mat.1_fracturepart3",
		"translation":[2.1705055236816408,
		1.5543471574783326,
		0.5465040802955627],
		"rotation":[0.0,
		0.0,
		0.0,
		-1.0],
		"scale":[1.0,
		1.0,
		1.0],
		"mesh":4
	},
	{
		"name":"Beat_Saber_block.1-Mat.1_fracturepart4",
		"translation":[-2.8550925254821779,
		1.3129453659057618,
		1.055281400680542],
		"rotation":[0.0,
		0.0,
		0.0,
		-1.0],
		"scale":[1.0,
		1.0,
		1.0],
		"mesh":5
	},
	{
		"name":"Beat_Saber_block.1-Mat.1_fracturepart5",
		"translation":[0.42959436774253847,
		-3.1330041885375978,
		2.6597509384155275],
		"rotation":[0.0,
		0.0,
		0.0,
		-1.0],
		"scale":[1.0,
		1.0,
		1.0],
		"mesh":6
	},
	{
		"name":"Beat_Saber_block.1-Mat.1_fracturepart6",
		"translation":[-3.1250054836273195,
		3.3035404682159426,
		2.925933361053467],
		"rotation":[0.0,
		0.0,
		0.0,
		-1.0],
		"scale":[1.0,
		1.0,
		1.0],
		"mesh":7
	},
	{
		"name":"Beat_Saber_block.1-Mat.1_fracturepart7",
		"translation":[0.4689473509788513,
		-2.241460084915161,
		-1.9312427043914796],
		"rotation":[0.0,
		0.0,
		0.0,
		-1.0],
		"scale":[1.0,
		1.0,
		1.0],
		"mesh":8
	},
	{
		"name":"Beat_Saber_block.1-Mat.1_fracturepart8",
		"translation":[1.621593713760376,
		1.3301407098770142,
		2.227278232574463],
		"rotation":[0.0,
		0.0,
		0.0,
		-1.0],
		"scale":[1.0,
		1.0,
		1.0],
		"mesh":9
	},
	{
		"name":"Beat_Saber_block.1-Mat.1_fracturepart9",
		"translation":[-0.5978045463562012,
		3.2939257621765138,
		1.4377590417861939],
		"rotation":[0.0,
		0.0,
		0.0,
		-1.0],
		"scale":[1.0,
		1.0,
		1.0],
		"mesh":10
	},
	{
		"name":"Beat_Saber_block.1-Mat.1_fracturepart10",
		"translation":[-0.8282000422477722,
		-0.8655514717102051,
		-1.4845378398895264],
		"rotation":[0.0,
		0.0,
		0.0,
		-1.0],
		"scale":[1.0,
		1.0,
		1.0],
		"mesh":11
	}],
	"asset":{
		"version":"2.0",
		"generator":"Created using the official Cinema 4D glTF Exporter 1.000x284978"
	},
	"scenes":[{
		"nodes":[0]
	}],
	"materials":[{
		"pbrMetallicRoughness":{
			"baseColorFactor":[1.0,
			1.0,
			1.0,
			1.0],
			"metallicFactor":0.0,
			"roughnessFactor":0.5
		},
		"emissiveFactor":[0.0,
		0.0,
		0.0],
		"alphaMode":"OPAQUE",
		"doubleSided":false,
		"name":"Mat"
	},
	{
		"pbrMetallicRoughness":{
			"baseColorFactor":[0.11200000000000002,
			0.284,
			0.8,
			1.0],
			"metallicFactor":0.0,
			"roughnessFactor":0.5
		},
		"emissiveFactor":[0.0,
		0.0,
		0.0],
		"alphaMode":"OPAQUE",
		"doubleSided":false,
		"name":"Mat.1"
	}],
	"meshes":[{
		"name":"Beat_Saber_block.1-Mat_fracturepart8",
		"primitives":[{
			"attributes":{
				"POSITION":3
			},
			"indices":2,
			"material":0
		}]
	},
	{
		"name":"Beat_Saber_block.1-Mat_fracturepart10",
		"primitives":[{
			"attributes":{
				"POSITION":5
			},
			"indices":4,
			"material":0
		}]
	},
	{
		"name":"Beat_Saber_block.1-Mat.1_fracturepart1",
		"primitives":[{
			"attributes":{
				"POSITION":7
			},
			"indices":6,
			"material":1
		}]
	},
	{
		"name":"Beat_Saber_block.1-Mat.1_fracturepart2",
		"primitives":[{
			"attributes":{
				"POSITION":9
			},
			"indices":8,
			"material":1
		}]
	},
	{
		"name":"Beat_Saber_block.1-Mat.1_fracturepart3",
		"primitives":[{
			"attributes":{
				"POSITION":11
			},
			"indices":10,
			"material":1
		}]
	},
	{
		"name":"Beat_Saber_block.1-Mat.1_fracturepart4",
		"primitives":[{
			"attributes":{
				"POSITION":13
			},
			"indices":12,
			"material":1
		}]
	},
	{
		"name":"Beat_Saber_block.1-Mat.1_fracturepart5",
		"primitives":[{
			"attributes":{
				"POSITION":15
			},
			"indices":14,
			"material":1
		}]
	},
	{
		"name":"Beat_Saber_block.1-Mat.1_fracturepart6",
		"primitives":[{
			"attributes":{
				"POSITION":17
			},
			"indices":16,
			"material":1
		}]
	},
	{
		"name":"Beat_Saber_block.1-Mat.1_fracturepart7",
		"primitives":[{
			"attributes":{
				"POSITION":19
			},
			"indices":18,
			"material":1
		}]
	},
	{
		"name":"Beat_Saber_block.1-Mat.1_fracturepart8",
		"primitives":[{
			"attributes":{
				"POSITION":21
			},
			"indices":20,
			"material":1
		}]
	},
	{
		"name":"Beat_Saber_block.1-Mat.1_fracturepart9",
		"primitives":[{
			"attributes":{
				"POSITION":23
			},
			"indices":22,
			"material":1
		}]
	},
	{
		"name":"Beat_Saber_block.1-Mat.1_fracturepart10",
		"primitives":[{
			"attributes":{
				"POSITION":25
			},
			"indices":24,
			"material":1
		}]
	}],
	"accessors":[{
		"count":51,
		"bufferView":0,
		"type":"SCALAR",
		"componentType":5126,
		"byteOffset":0,
		"min":[0.0],
		"max":[2.0]
	},
	{
		"count":2601,
		"bufferView":0,
		"type":"SCALAR",
		"componentType":5126,
		"byteOffset":204,
		"min":[0.0],
		"max":[1.0]
	},
	{
		"count":30,
		"bufferView":1,
		"type":"SCALAR",
		"componentType":5123,
		"byteOffset":0,
		"min":[0],
		"max":[6]
	},
	{
		"count":7,
		"bufferView":2,
		"type":"VEC3",
		"componentType":5126,
		"byteOffset":0,
		"min":[-0.03585962951183319,
		-0.036456238478422168,
		-0.03546189144253731],
		"max":[0.03585962951183319,
		0.036456238478422168,
		0.03546189144253731]
	},
	{
		"count":138,
		"bufferView":3,
		"type":"SCALAR",
		"componentType":5123,
		"byteOffset":0,
		"min":[0],
		"max":[24]
	},
	{
		"count":25,
		"bufferView":4,
		"type":"VEC3",
		"componentType":5126,
		"byteOffset":0,
		"min":[-0.5,
		-0.5,
		-0.5],
		"max":[0.5,
		0.5,
		0.5]
	},
	{
		"count":3360,
		"bufferView":5,
		"type":"SCALAR",
		"componentType":5123,
		"byteOffset":0,
		"min":[0],
		"max":[561]
	},
	{
		"count":562,
		"bufferView":6,
		"type":"VEC3",
		"componentType":5126,
		"byteOffset":0,
		"min":[-3.3187448978424074,
		-2.256481647491455,
		-4.398392200469971],
		"max":[3.3187448978424074,
		2.256481647491455,
		4.398392200469971]
	},
	{
		"count":6558,
		"bufferView":7,
		"type":"SCALAR",
		"componentType":5123,
		"byteOffset":0,
		"min":[0],
		"max":[1094]
	},
	{
		"count":1095,
		"bufferView":8,
		"type":"VEC3",
		"componentType":5126,
		"byteOffset":0,
		"min":[-5.0,
		-2.61153244972229,
		-2.1638431549072267],
		"max":[5.0,
		2.61153244972229,
		2.1638431549072267]
	},
	{
		"count":2706,
		"bufferView":9,
		"type":"SCALAR",
		"componentType":5123,
		"byteOffset":0,
		"min":[0],
		"max":[452]
	},
	{
		"count":453,
		"bufferView":10,
		"type":"VEC3",
		"componentType":5126,
		"byteOffset":0,
		"min":[-2.829369068145752,
		-3.3629674911499025,
		-4.1533942222595219],
		"max":[2.829369068145752,
		3.3629674911499025,
		4.1533942222595219]
	},
	{
		"count":1206,
		"bufferView":11,
		"type":"SCALAR",
		"componentType":5123,
		"byteOffset":0,
		"min":[0],
		"max":[202]
	},
	{
		"count":203,
		"bufferView":12,
		"type":"VEC3",
		"componentType":5126,
		"byteOffset":0,
		"min":[-2.1450328826904299,
		-3.54898738861084,
		-3.9447286128997804],
		"max":[2.1450328826904299,
		3.54898738861084,
		3.9447286128997804]
	},
	{
		"count":3876,
		"bufferView":13,
		"type":"SCALAR",
		"componentType":5123,
		"byteOffset":0,
		"min":[0],
		"max":[647]
	},
	{
		"count":648,
		"bufferView":14,
		"type":"VEC3",
		"componentType":5126,
		"byteOffset":0,
		"min":[-4.5702805519104,
		-1.949681043624878,
		-2.340259075164795],
		"max":[4.5702805519104,
		1.949681043624878,
		2.340259075164795]
	},
	{
		"count":3624,
		"bufferView":15,
		"type":"SCALAR",
		"componentType":5123,
		"byteOffset":0,
		"min":[0],
		"max":[605]
	},
	{
		"count":606,
		"bufferView":16,
		"type":"VEC3",
		"componentType":5126,
		"byteOffset":0,
		"min":[-1.8751198053359986,
		-1.6137741804122925,
		-2.0740766525268556],
		"max":[1.8751198053359986,
		1.6137741804122925,
		2.0740766525268556]
	},
	{
		"count":3912,
		"bufferView":17,
		"type":"SCALAR",
		"componentType":5123,
		"byteOffset":0,
		"min":[0],
		"max":[653]
	},
	{
		"count":654,
		"bufferView":18,
		"type":"VEC3",
		"componentType":5126,
		"byteOffset":0,
		"min":[-4.5309271812438969,
		-2.8412251472473146,
		-3.0687472820281984],
		"max":[4.5309271812438969,
		2.8412251472473146,
		3.0687472820281984]
	},
	{
		"count":2100,
		"bufferView":19,
		"type":"SCALAR",
		"componentType":5123,
		"byteOffset":0,
		"min":[0],
		"max":[351]
	},
	{
		"count":352,
		"bufferView":20,
		"type":"VEC3",
		"componentType":5126,
		"byteOffset":0,
		"min":[-3.3782811164855959,
		-3.578606367111206,
		-2.7727317810058595],
		"max":[3.3782811164855959,
		3.578606367111206,
		2.7727317810058595]
	},
	{
		"count":840,
		"bufferView":21,
		"type":"SCALAR",
		"componentType":5123,
		"byteOffset":0,
		"min":[0],
		"max":[141]
	},
	{
		"count":142,
		"bufferView":22,
		"type":"VEC3",
		"componentType":5126,
		"byteOffset":0,
		"min":[-3.6996421813964845,
		-1.6233890056610108,
		-3.562251091003418],
		"max":[3.6996421813964845,
		1.6233890056610108,
		3.562251091003418]
	},
	{
		"count":3450,
		"bufferView":23,
		"type":"SCALAR",
		"componentType":5123,
		"byteOffset":0,
		"min":[0],
		"max":[576]
	},
	{
		"count":577,
		"bufferView":24,
		"type":"VEC3",
		"componentType":5126,
		"byteOffset":0,
		"min":[-4.171925067901611,
		-4.21713399887085,
		-3.5154521465301515],
		"max":[4.171925067901611,
		4.21713399887085,
		3.5154521465301515]
	}],
	"bufferViews":[{
		"buffer":0,
		"byteOffset":0,
		"byteLength":10608
	},
	{
		"buffer":1,
		"byteOffset":0,
		"byteLength":60,
		"target":34963
	},
	{
		"buffer":1,
		"byteOffset":60,
		"byteLength":84,
		"target":34962
	},
	{
		"buffer":2,
		"byteOffset":0,
		"byteLength":276,
		"target":34963
	},
	{
		"buffer":2,
		"byteOffset":276,
		"byteLength":300,
		"target":34962
	},
	{
		"buffer":3,
		"byteOffset":0,
		"byteLength":6720,
		"target":34963
	},
	{
		"buffer":3,
		"byteOffset":6720,
		"byteLength":6744,
		"target":34962
	},
	{
		"buffer":4,
		"byteOffset":0,
		"byteLength":13116,
		"target":34963
	},
	{
		"buffer":4,
		"byteOffset":13116,
		"byteLength":13140,
		"target":34962
	},
	{
		"buffer":5,
		"byteOffset":0,
		"byteLength":5412,
		"target":34963
	},
	{
		"buffer":5,
		"byteOffset":5412,
		"byteLength":5436,
		"target":34962
	},
	{
		"buffer":6,
		"byteOffset":0,
		"byteLength":2412,
		"target":34963
	},
	{
		"buffer":6,
		"byteOffset":2412,
		"byteLength":2436,
		"target":34962
	},
	{
		"buffer":7,
		"byteOffset":0,
		"byteLength":7752,
		"target":34963
	},
	{
		"buffer":7,
		"byteOffset":7752,
		"byteLength":7776,
		"target":34962
	},
	{
		"buffer":8,
		"byteOffset":0,
		"byteLength":7248,
		"target":34963
	},
	{
		"buffer":8,
		"byteOffset":7248,
		"byteLength":7272,
		"target":34962
	},
	{
		"buffer":9,
		"byteOffset":0,
		"byteLength":7824,
		"target":34963
	},
	{
		"buffer":9,
		"byteOffset":7824,
		"byteLength":7848,
		"target":34962
	},
	{
		"buffer":10,
		"byteOffset":0,
		"byteLength":4200,
		"target":34963
	},
	{
		"buffer":10,
		"byteOffset":4200,
		"byteLength":4224,
		"target":34962
	},
	{
		"buffer":11,
		"byteOffset":0,
		"byteLength":1680,
		"target":34963
	},
	{
		"buffer":11,
		"byteOffset":1680,
		"byteLength":1704,
		"target":34962
	},
	{
		"buffer":12,
		"byteOffset":0,
		"byteLength":6900,
		"target":34963
	},
	{
		"buffer":12,
		"byteOffset":6900,
		"byteLength":6924,
		"target":34962
	}],
	"animations":[{
		"samplers":[{
			"input":0,
			"interpolation":"LINEAR",
			"output":1
		}],
		"channels":[{
			"sampler":0,
			"target":{
				"node":0,
				"path":"weights"
			}
		}]
	}],
	"buffers":[{
		"uri":"data:application/octet-stream;base64,",
		"byteLength":10608
	},
	{
		"uri":"data:application/octet-stream;base64,",
		"byteLength":144
	},
	{
		"uri":"data:application/octet-stream;base64,",
		"byteLength":576
	},
	{
		"uri":"data:application/octet-stream;base64,",
		"byteLength":13464
	},
	{
		"uri":"data:application/octet-stream;base64,",
		"byteLength":26256
	},
	{
		"uri":"data:application/octet-stream;base64,",
		"byteLength":10848
	},
	{
		"uri":"data:application/octet-stream;base64,",
		"byteLength":4848
	},
	{
		"uri":"data:application/octet-stream;base64,",
		"byteLength":15528
	},
	{
		"uri":"data:application/octet-stream;base64,",
		"byteLength":14520
	},
	{
		"uri":"data:application/octet-stream;base64,",
		"byteLength":15672
	},
	{
		"uri":"data:application/octet-stream;base64,",
		"byteLength":8424
	},
	{
		"uri":"data:application/octet-stream;base64,",
		"byteLength":3384
	},
	{
		"uri":"data:application/octet-stream;base64,",
		"byteLength":13824
	}]
}