{
	"nodes":[{
		"name":"Beat_Saber_block.1",
		"translation":[0.0,
		0.0,
		0.0],
		"rotation":[0.0,
		0.0,
		0.0,
		-1.0],
		"scale":[1.0,
		1.0,
		1.0],
		"children":[1,
		2]
	},
	{
		"name":"Beat_Saber_block.1-Mat",
		"translation":[0.0,
		0.0,
		0.0],
		"rotation":[0.0,
		0.0,
		0.0,
		-1.0],
		"scale":[1.0,
		1.0,
		1.0],
		"mesh":0
	},
	{
		"name":"Beat_Saber_block.1-Mat.1",
		"translation":[0.0,
		0.0,
		0.0],
		"rotation":[0.0,
		0.0,
		0.0,
		-1.0],
		"scale":[1.0,
		1.0,
		1.0],
		"mesh":1
	}],
	"asset":{
		"version":"2.0",
		"generator":"Created using the official Cinema 4D glTF Exporter 1.000x284978"
	},
	"scenes":[{
		"nodes":[0]
	}],
	"materials":[{
		"pbrMetallicRoughness":{
			"baseColorFactor":[1.0,
			1.0,
			1.0,
			1.0],
			"metallicFactor":0.0,
			"roughnessFactor":0.5
		},
		"emissiveFactor":[0.0,
		0.0,
		0.0],
		"alphaMode":"OPAQUE",
		"doubleSided":false,
		"name":"Mat"
	},
	{
		"pbrMetallicRoughness":{
			"baseColorFactor":[0.11200000000000002,
			0.284,
			0.8,
			1.0],
			"metallicFactor":0.0,
			"roughnessFactor":0.5
		},
		"emissiveFactor":[0.0,
		0.0,
		0.0],
		"alphaMode":"OPAQUE",
		"doubleSided":false,
		"name":"Mat.1"
	}],
	"meshes":[{
		"name":"Beat_Saber_block.1-Mat",
		"primitives":[{
			"attributes":{
				"POSITION":5
			},
			"indices":4,
			"material":0
		}]
	},
	{
		"name":"Beat_Saber_block.1-Mat.1",
		"primitives":[{
			"attributes":{
				"POSITION":11
			},
			"indices":10,
			"material":1
		}]
	}],
	"accessors":[{
		"count":51,
		"bufferView":0,
		"type":"SCALAR",
		"componentType":5126,
		"byteOffset":0,
		"min":[0.0],
		"max":[2.0]
	},
	{
		"count":51,
		"bufferView":0,
		"type":"VEC3",
		"componentType":5126,
		"byteOffset":204,
		"min":[0.0,
		0.0,
		0.0],
		"max":[0.0,
		0.0,
		14.741604804992676]
	},
	{
		"count":51,
		"bufferView":1,
		"type":"SCALAR",
		"componentType":5126,
		"byteOffset":0,
		"min":[0.0],
		"max":[2.0]
	},
	{
		"count":51,
		"bufferView":1,
		"type":"VEC4",
		"componentType":5126,
		"byteOffset":204,
		"min":[0.0,
		0.0,
		0.0,
		-1.0],
		"max":[0.7071067690849304,
		0.0,
		0.0,
		-0.7071067690849304]
	},
	{
		"count":108,
		"bufferView":2,
		"type":"SCALAR",
		"componentType":5123,
		"byteOffset":0,
		"min":[0],
		"max":[19]
	},
	{
		"count":20,
		"bufferView":3,
		"type":"VEC3",
		"componentType":5126,
		"byteOffset":0,
		"min":[-3.121140480041504,
		1.0416291952133179,
		3.8952643871307375],
		"max":[3.121140480041504,
		2.990138530731201,
		4.998408317565918]
	},
	{
		"count":51,
		"bufferView":4,
		"type":"SCALAR",
		"componentType":5126,
		"byteOffset":0,
		"min":[0.0],
		"max":[2.0]
	},
	{
		"count":51,
		"bufferView":4,
		"type":"VEC3",
		"componentType":5126,
		"byteOffset":204,
		"min":[0.0,
		0.0,
		0.0],
		"max":[0.0,
		0.0,
		14.741604804992676]
	},
	{
		"count":51,
		"bufferView":5,
		"type":"SCALAR",
		"componentType":5126,
		"byteOffset":0,
		"min":[0.0],
		"max":[2.0]
	},
	{
		"count":51,
		"bufferView":5,
		"type":"VEC4",
		"componentType":5126,
		"byteOffset":204,
		"min":[0.0,
		0.0,
		0.0,
		-1.0],
		"max":[0.7071067690849304,
		0.0,
		0.0,
		-0.7071067690849304]
	},
	{
		"count":21360,
		"bufferView":6,
		"type":"SCALAR",
		"componentType":5123,
		"byteOffset":0,
		"min":[0],
		"max":[3561]
	},
	{
		"count":3562,
		"bufferView":7,
		"type":"VEC3",
		"componentType":5126,
		"byteOffset":0,
		"min":[-5.000125408172607,
		-5.082685470581055,
		-4.999989986419678],
		"max":[4.999874591827393,
		4.917314529418945,
		5.000010013580322]
	}],
	"bufferViews":[{
		"buffer":0,
		"byteOffset":0,
		"byteLength":816
	},
	{
		"buffer":0,
		"byteOffset":816,
		"byteLength":1020
	},
	{
		"buffer":1,
		"byteOffset":0,
		"byteLength":216,
		"target":34963
	},
	{
		"buffer":1,
		"byteOffset":216,
		"byteLength":240,
		"target":34962
	},
	{
		"buffer":2,
		"byteOffset":0,
		"byteLength":816
	},
	{
		"buffer":2,
		"byteOffset":816,
		"byteLength":1020
	},
	{
		"buffer":3,
		"byteOffset":0,
		"byteLength":42720,
		"target":34963
	},
	{
		"buffer":3,
		"byteOffset":42720,
		"byteLength":42744,
		"target":34962
	}],
	"animations":[{
		"samplers":[{
			"input":0,
			"interpolation":"LINEAR",
			"output":1
		},
		{
			"input":2,
			"interpolation":"LINEAR",
			"output":3
		},
		{
			"input":6,
			"interpolation":"LINEAR",
			"output":7
		},
		{
			"input":8,
			"interpolation":"LINEAR",
			"output":9
		}],
		"channels":[{
			"sampler":0,
			"target":{
				"node":0,
				"path":"translation"
			}
		},
		{
			"sampler":1,
			"target":{
				"node":0,
				"path":"rotation"
			}
		},
		{
			"sampler":2,
			"target":{
				"node":1,
				"path":"translation"
			}
		},
		{
			"sampler":3,
			"target":{
				"node":1,
				"path":"rotation"
			}
		}]
	}],
	"buffers":[{
		"uri":"data:application/octet-stream;base64,",
		"byteLength":1836
	},
	{
		"uri":"data:application/octet-stream;base64,",
		"byteLength":456
	},
	{
		"uri":"data:application/octet-stream;base64,",
		"byteLength":1836
	},
	{
		"uri":"data:application/octet-stream;base64,",
		"byteLength":85464
	}]
}