{
	"nodes":[{
		"name":"Null",
		"rotation":[0.0,
		0.0,
		0.0,
		-1.0],
		"translation":[0.0,
		0.0,
		0.0],
		"scale":[0.10000000149011612,
		0.10000000149011612,
		0.10000000149011612],
		"children":[1]
	},
	{
		"name":"Text.2",
		"rotation":[0.0,
		0.0,
		0.0,
		-1.0],
		"translation":[0.0,
		-65.0,
		-5.0],
		"scale":[1.0053073167800904,
		1.0053073167800904,
		1.0053073167800904],
		"children":[2,
		3]
	},
	{
		"name":"Text.2-Mat",
		"rotation":[0.0,
		0.0,
		0.0,
		-1.0],
		"translation":[0.0,
		1.4210854715202005e-14,
		0.0],
		"scale":[1.0,
		1.0,
		1.0],
		"mesh":0
	},
	{
		"name":"Text.2-Mat.1",
		"rotation":[0.0,
		0.0,
		0.0,
		-1.0],
		"translation":[0.0,
		1.4210854715202005e-14,
		0.0],
		"scale":[1.0,
		1.0,
		1.0],
		"mesh":1
	}],
	"asset":{
		"version":"2.0",
		"generator":"Created using the official Cinema 4D glTF Exporter 1.000x284978"
	},
	"materials":[{
		"pbrMetallicRoughness":{
			"baseColorFactor":[1.0,
			1.0,
			1.0,
			1.0],
			"metallicFactor":0.0,
			"roughnessFactor":0.5
		},
		"emissiveFactor":[0.0,
		0.0,
		0.0],
		"alphaMode":"OPAQUE",
		"doubleSided":false,
		"name":"Mat"
	},
	{
		"pbrMetallicRoughness":{
			"baseColorFactor":[0.3040000000000005,
			0.055999999999999969,
			0.8,
			1.0],
			"metallicFactor":0.0,
			"roughnessFactor":0.5
		},
		"emissiveFactor":[0.0,
		0.0,
		0.0],
		"alphaMode":"OPAQUE",
		"doubleSided":false,
		"name":"Mat.1"
	}],
	"scenes":[{
		"nodes":[0]
	}],
	"meshes":[{
		"name":"Text.2-Mat",
		"primitives":[{
			"attributes":{
				"POSITION":5,
				"NORMAL":6
			},
			"indices":4,
			"material":0
		}]
	},
	{
		"name":"Text.2-Mat.1",
		"primitives":[{
			"attributes":{
				"POSITION":8,
				"NORMAL":9
			},
			"indices":7,
			"material":1
		}]
	}],
	"animations":[{
		"samplers":[{
			"input":0,
			"interpolation":"LINEAR",
			"output":1
		},
		{
			"input":2,
			"interpolation":"LINEAR",
			"output":3
		}],
		"channels":[{
			"sampler":0,
			"target":{
				"node":0,
				"path":"rotation"
			}
		},
		{
			"sampler":1,
			"target":{
				"node":0,
				"path":"scale"
			}
		}]
	}],
	"accessors":[{
		"min":[0.0],
		"count":51,
		"bufferView":0,
		"type":"SCALAR",
		"componentType":5126,
		"byteOffset":0,
		"max":[2.0]
	},
	{
		"min":[0.0,
		-1.0,
		0.0,
		-1.0],
		"count":51,
		"bufferView":0,
		"type":"VEC4",
		"componentType":5126,
		"byteOffset":204,
		"max":[7.199230656063094e-10,
		0.0,
		7.450580596923828e-9,
		0.9999569654464722]
	},
	{
		"min":[0.0],
		"count":51,
		"bufferView":1,
		"type":"SCALAR",
		"componentType":5126,
		"byteOffset":0,
		"max":[2.0]
	},
	{
		"min":[0.10000000149011612,
		0.10000000149011612,
		0.10000000149011612],
		"count":51,
		"bufferView":1,
		"type":"VEC3",
		"componentType":5126,
		"byteOffset":204,
		"max":[1.139940857887268,
		1.139940857887268,
		1.139940857887268]
	},
	{
		"min":[0],
		"count":2316,
		"bufferView":2,
		"type":"SCALAR",
		"componentType":5123,
		"byteOffset":0,
		"max":[831]
	},
	{
		"min":[-272.0561828613281,
		-11.851164817810059,
		-14.920809745788575],
		"count":832,
		"bufferView":3,
		"type":"VEC3",
		"componentType":5126,
		"byteOffset":0,
		"max":[271.6539306640625,
		143.08824157714845,
		4.973603248596191]
	},
	{
		"min":[-0.9999688267707825,
		-0.9998437762260437,
		-1.0],
		"count":832,
		"bufferView":3,
		"type":"VEC3",
		"componentType":5126,
		"byteOffset":12,
		"max":[0.9999688267707825,
		0.9996563196182251,
		1.0]
	},
	{
		"min":[0],
		"count":16428,
		"bufferView":4,
		"type":"SCALAR",
		"componentType":5123,
		"byteOffset":0,
		"max":[3381]
	},
	{
		"min":[-277.03277587890627,
		-17.01357650756836,
		-29.84161949157715],
		"count":3382,
		"bufferView":5,
		"type":"VEC3",
		"componentType":5126,
		"byteOffset":0,
		"max":[277.5258483886719,
		148.51792907714845,
		0.0]
	},
	{
		"min":[-0.9998750686645508,
		-0.9998437762260437,
		-1.0],
		"count":3382,
		"bufferView":5,
		"type":"VEC3",
		"componentType":5126,
		"byteOffset":12,
		"max":[0.9999688267707825,
		0.9996563196182251,
		1.0]
	}],
	"bufferViews":[{
		"buffer":0,
		"byteOffset":0,
		"byteLength":1020
	},
	{
		"buffer":0,
		"byteOffset":1020,
		"byteLength":816
	},
	{
		"buffer":1,
		"byteOffset":0,
		"byteLength":4632,
		"target":34963
	},
	{
		"buffer":1,
		"byteOffset":4632,
		"byteLength":19968,
		"target":34962,
		"byteStride":24
	},
	{
		"buffer":2,
		"byteOffset":0,
		"byteLength":32856,
		"target":34963
	},
	{
		"buffer":2,
		"byteOffset":32856,
		"byteLength":81168,
		"target":34962,
		"byteStride":24
	}],
	"buffers":[{
		"uri":"data:application/octet-stream;base64,",
		"byteLength":1836
	},
	{
		"uri":"data:application/octet-stream;base64,",
		"byteLength":24600
	},
	{
		"uri":"data:application/octet-stream;base64,",
		"byteLength":114024
	}]
}